<svg width="144" height="57" viewBox="0 0 144 57" fill="none" xmlns="http://www.w3.org/2000/svg">
<path d="M19.808 10.544H13.088V7.376H8.864V10.544H2.112V13.84H19.808V10.544ZM7.68 20.528C7.68 19.024 9.024 18.192 10.976 18.192C12.96 18.192 14.272 19.024 14.272 20.528C14.272 22.064 12.96 22.896 10.976 22.896C9.024 22.896 7.68 22.064 7.68 20.528ZM13.088 25.872C16.224 25.264 18.272 23.28 18.272 20.528C18.272 17.232 15.264 14.992 10.976 14.992C6.656 14.992 3.648 17.232 3.648 20.528C3.648 23.28 5.696 25.264 8.864 25.872V28.368C6.24 28.432 3.744 28.432 1.536 28.432L2.048 31.856C7.264 31.856 14.08 31.824 20.512 30.64L20.192 27.568C17.888 27.888 15.488 28.048 13.088 28.208V25.872ZM21.728 7.28V36.752H25.952V7.28H21.728ZM44.2215 9.552H39.9655V13.84C39.9655 19.312 37.7255 24.944 32.7655 27.28L35.2935 30.704C38.6215 29.072 40.8295 25.968 42.1095 22.224C43.3255 25.744 45.4055 28.592 48.4775 30.16L51.0375 26.832C46.3015 24.496 44.2215 19.152 44.2215 13.84V9.552ZM60.7335 18.608H56.4455V7.28H52.2215V36.752H56.4455V22.128H60.7335V18.608ZM80.795 30.064V25.68H89.723V22.288H72.635V18.992H89.051V9.168H68.411V12.528H84.891V15.696H68.443V25.68H76.571V30.064H65.371V33.52H92.059V30.064H80.795ZM120.313 26.736C121.497 20.464 121.497 16.304 121.497 12.624V9.808H100.089V13.168H117.273C117.273 16.592 117.209 20.688 116.089 26.256L120.313 26.736ZM111.033 29.808V19.664H106.809V29.808H97.4005V33.2H124.057V29.808H111.033ZM0.48 49.712C0.48 49.056 0.54 48.416 0.66 47.792C0.788 47.168 0.984 46.572 1.248 46.004C1.512 45.436 1.844 44.912 2.244 44.432H3.24C2.872 44.928 2.56 45.464 2.304 46.04C2.056 46.616 1.868 47.212 1.74 47.828C1.612 48.444 1.548 49.068 1.548 49.7C1.548 50.316 1.612 50.928 1.74 51.536C1.868 52.144 2.056 52.728 2.304 53.288C2.552 53.856 2.86 54.392 3.228 54.896H2.244C1.844 54.424 1.512 53.908 1.248 53.348C0.984 52.796 0.788 52.212 0.66 51.596C0.54 50.98 0.48 50.352 0.48 49.712ZM6.27366 51.416H12.7417V53.888H13.7257V50.612H6.27366V51.416ZM8.70966 44.312H11.3857V46.652H8.70966V44.312ZM10.5577 48.752V47.456H13.9537V46.652H12.3697V44.312H14.0017V43.508H6.10566V44.312H7.72566V46.652H6.12966V47.456H9.57366V48.752H5.19366V49.544H14.9257V48.752H10.5577ZM22.7967 53H17.1327V52.124L19.3767 49.856C19.8087 49.424 20.1727 49.04 20.4687 48.704C20.7647 48.368 20.9887 48.04 21.1407 47.72C21.2927 47.392 21.3687 47.036 21.3687 46.652C21.3687 46.18 21.2287 45.824 20.9487 45.584C20.6687 45.336 20.3047 45.212 19.8567 45.212C19.4407 45.212 19.0727 45.284 18.7527 45.428C18.4407 45.572 18.1207 45.772 17.7927 46.028L17.2287 45.32C17.4527 45.128 17.6967 44.956 17.9607 44.804C18.2327 44.652 18.5247 44.532 18.8367 44.444C19.1567 44.356 19.4967 44.312 19.8567 44.312C20.3927 44.312 20.8527 44.404 21.2367 44.588C21.6207 44.772 21.9167 45.036 22.1247 45.38C22.3407 45.716 22.4487 46.12 22.4487 46.592C22.4487 46.928 22.3967 47.248 22.2927 47.552C22.1887 47.848 22.0407 48.14 21.8487 48.428C21.6567 48.716 21.4247 49.008 21.1527 49.304C20.8807 49.6 20.5807 49.908 20.2527 50.228L18.4647 51.992V52.04H22.7967V53ZM30.6599 48.704C30.6599 49.4 30.6079 50.02 30.5039 50.564C30.3999 51.108 30.2319 51.572 29.9999 51.956C29.7759 52.332 29.4799 52.62 29.1119 52.82C28.7519 53.02 28.3159 53.12 27.8039 53.12C27.1639 53.12 26.6319 52.944 26.2079 52.592C25.7919 52.24 25.4799 51.736 25.2719 51.08C25.0719 50.416 24.9719 49.624 24.9719 48.704C24.9719 47.776 25.0639 46.984 25.2479 46.328C25.4399 45.672 25.7439 45.172 26.1599 44.828C26.5759 44.476 27.1239 44.3 27.8039 44.3C28.4439 44.3 28.9759 44.476 29.3999 44.828C29.8239 45.172 30.1399 45.672 30.3479 46.328C30.5559 46.984 30.6599 47.776 30.6599 48.704ZM26.0279 48.704C26.0279 49.488 26.0839 50.14 26.1959 50.66C26.3159 51.18 26.5039 51.572 26.7599 51.836C27.0239 52.092 27.3719 52.22 27.8039 52.22C28.2359 52.22 28.5799 52.092 28.8359 51.836C29.0999 51.58 29.2919 51.192 29.4119 50.672C29.5319 50.144 29.5919 49.488 29.5919 48.704C29.5919 47.92 29.5319 47.272 29.4119 46.76C29.2919 46.24 29.0999 45.852 28.8359 45.596C28.5799 45.332 28.2359 45.2 27.8039 45.2C27.3719 45.2 27.0239 45.332 26.7599 45.596C26.5039 45.852 26.3159 46.24 26.1959 46.76C26.0839 47.272 26.0279 47.92 26.0279 48.704ZM38.4871 48.704C38.4871 49.4 38.4351 50.02 38.3311 50.564C38.2271 51.108 38.0591 51.572 37.8271 51.956C37.6031 52.332 37.3071 52.62 36.9391 52.82C36.5791 53.02 36.1431 53.12 35.6311 53.12C34.9911 53.12 34.4591 52.944 34.0351 52.592C33.6191 52.24 33.3071 51.736 33.0991 51.08C32.8991 50.416 32.7991 49.624 32.7991 48.704C32.7991 47.776 32.8911 46.984 33.0751 46.328C33.2671 45.672 33.5711 45.172 33.9871 44.828C34.4031 44.476 34.9511 44.3 35.6311 44.3C36.2711 44.3 36.8031 44.476 37.2271 44.828C37.6511 45.172 37.9671 45.672 38.1751 46.328C38.3831 46.984 38.4871 47.776 38.4871 48.704ZM33.8551 48.704C33.8551 49.488 33.9111 50.14 34.0231 50.66C34.1431 51.18 34.3311 51.572 34.5871 51.836C34.8511 52.092 35.1991 52.22 35.6311 52.22C36.0631 52.22 36.4071 52.092 36.6631 51.836C36.9271 51.58 37.1191 51.192 37.2391 50.672C37.3591 50.144 37.4191 49.488 37.4191 48.704C37.4191 47.92 37.3591 47.272 37.2391 46.76C37.1191 46.24 36.9271 45.852 36.6631 45.596C36.4071 45.332 36.0631 45.2 35.6311 45.2C35.1991 45.2 34.8511 45.332 34.5871 45.596C34.3311 45.852 34.1431 46.24 34.0231 46.76C33.9111 47.272 33.8551 47.92 33.8551 48.704ZM44.1183 46.448C44.9103 46.448 45.5463 46.724 46.0263 47.276C46.5143 47.828 46.7583 48.66 46.7583 49.772C46.7583 50.5 46.6463 51.116 46.4223 51.62C46.2063 52.116 45.8983 52.492 45.4983 52.748C45.1063 52.996 44.6423 53.12 44.1063 53.12C43.7783 53.12 43.4863 53.076 43.2303 52.988C42.9743 52.9 42.7543 52.788 42.5703 52.652C42.3943 52.508 42.2423 52.352 42.1143 52.184H42.0423C42.0583 52.32 42.0743 52.492 42.0903 52.7C42.1063 52.908 42.1143 53.088 42.1143 53.24V55.88H41.0583V46.568H41.9223L42.0663 47.444H42.1143C42.2423 47.26 42.3943 47.092 42.5703 46.94C42.7543 46.788 42.9703 46.668 43.2183 46.58C43.4743 46.492 43.7743 46.448 44.1183 46.448ZM43.9263 47.336C43.4943 47.336 43.1463 47.42 42.8823 47.588C42.6183 47.748 42.4263 47.992 42.3063 48.32C42.1863 48.648 42.1223 49.064 42.1143 49.568V49.772C42.1143 50.3 42.1703 50.748 42.2823 51.116C42.3943 51.484 42.5823 51.764 42.8463 51.956C43.1183 52.148 43.4863 52.244 43.9503 52.244C44.3423 52.244 44.6623 52.136 44.9103 51.92C45.1663 51.704 45.3543 51.412 45.4743 51.044C45.6023 50.668 45.6663 50.24 45.6663 49.76C45.6663 49.024 45.5223 48.436 45.2343 47.996C44.9543 47.556 44.5183 47.336 43.9263 47.336ZM50.6907 49.712L48.4707 46.568H49.6707L51.3267 48.992L52.9707 46.568H54.1587L51.9387 49.712L54.2787 53H53.0787L51.3267 50.432L49.5507 53H48.3627L50.6907 49.712ZM59.8023 44.432L56.6103 53H55.5783L58.7703 44.432H59.8023ZM65.2151 50.684H67.5671V52.952H65.2151V50.684ZM68.5391 50.684H70.1831V49.892H62.5991V50.684H64.2431V52.952H62.5031V53.744H70.2791V52.952H68.5391V50.684ZM66.8831 48.032V46.664H70.1591V45.872H63.8231V43.364H62.8391V46.664H65.8991V48.032H61.5311V48.824H71.2631V48.032H66.8831ZM81.3422 43.124V53.912H82.3262V43.124H81.3422ZM76.6502 43.952C75.0542 43.952 73.9142 45.416 73.9142 47.708C73.9142 50 75.0542 51.464 76.6502 51.464C78.2462 51.464 79.3862 50 79.3862 47.708C79.3862 45.416 78.2462 43.952 76.6502 43.952ZM76.6502 44.84C77.6942 44.84 78.4382 45.968 78.4382 47.708C78.4382 49.46 77.6942 50.588 76.6502 50.588C75.5942 50.588 74.8502 49.46 74.8502 47.708C74.8502 45.968 75.5942 44.84 76.6502 44.84ZM88.1812 47.744C88.7652 47.744 89.2732 47.844 89.7052 48.044C90.1372 48.244 90.4692 48.532 90.7012 48.908C90.9412 49.276 91.0612 49.728 91.0612 50.264C91.0612 50.856 90.9332 51.368 90.6772 51.8C90.4212 52.224 90.0532 52.552 89.5732 52.784C89.1012 53.008 88.5292 53.12 87.8572 53.12C87.4172 53.12 87.0012 53.08 86.6092 53C86.2252 52.92 85.9012 52.804 85.6372 52.652V51.656C85.9252 51.832 86.2732 51.972 86.6812 52.076C87.0972 52.172 87.4932 52.22 87.8692 52.22C88.2932 52.22 88.6612 52.156 88.9732 52.028C89.2932 51.892 89.5412 51.688 89.7172 51.416C89.8932 51.136 89.9812 50.788 89.9812 50.372C89.9812 49.812 89.8092 49.384 89.4652 49.088C89.1212 48.784 88.5772 48.632 87.8332 48.632C87.6092 48.632 87.3532 48.652 87.0652 48.692C86.7772 48.732 86.5452 48.772 86.3692 48.812L85.8412 48.476L86.1652 44.432H90.4612V45.392H87.0652L86.8612 47.876C86.9972 47.852 87.1812 47.824 87.4132 47.792C87.6452 47.76 87.9012 47.744 88.1812 47.744ZM94.3404 53L97.8564 45.392H93.2364V44.432H98.9844V45.248L95.5044 53H94.3404ZM104.616 46.448C105.408 46.448 106.044 46.724 106.524 47.276C107.012 47.828 107.256 48.66 107.256 49.772C107.256 50.5 107.144 51.116 106.92 51.62C106.704 52.116 106.396 52.492 105.996 52.748C105.604 52.996 105.14 53.12 104.604 53.12C104.276 53.12 103.984 53.076 103.728 52.988C103.472 52.9 103.252 52.788 103.068 52.652C102.892 52.508 102.74 52.352 102.612 52.184H102.54C102.556 52.32 102.572 52.492 102.588 52.7C102.604 52.908 102.612 53.088 102.612 53.24V55.88H101.556V46.568H102.42L102.564 47.444H102.612C102.74 47.26 102.892 47.092 103.068 46.94C103.252 46.788 103.468 46.668 103.716 46.58C103.972 46.492 104.272 46.448 104.616 46.448ZM104.424 47.336C103.992 47.336 103.644 47.42 103.38 47.588C103.116 47.748 102.924 47.992 102.804 48.32C102.684 48.648 102.62 49.064 102.612 49.568V49.772C102.612 50.3 102.668 50.748 102.78 51.116C102.892 51.484 103.08 51.764 103.344 51.956C103.616 52.148 103.984 52.244 104.448 52.244C104.84 52.244 105.16 52.136 105.408 51.92C105.664 51.704 105.852 51.412 105.972 51.044C106.1 50.668 106.164 50.24 106.164 49.76C106.164 49.024 106.02 48.436 105.732 47.996C105.452 47.556 105.016 47.336 104.424 47.336ZM111.188 49.712L108.968 46.568H110.168L111.824 48.992L113.468 46.568H114.656L112.436 49.712L114.776 53H113.576L111.824 50.432L110.048 53H108.86L111.188 49.712ZM119.748 45.188H121.668V44.384H116.76V45.188H118.8V46.16C118.8 48.14 117.96 50.096 116.46 50.996L117.06 51.728C118.128 51.056 118.908 49.796 119.28 48.32C119.652 49.688 120.396 50.84 121.44 51.464L122.04 50.744C120.552 49.904 119.748 48.032 119.748 46.16V45.188ZM122.628 46.988H120.852V47.792H122.628V53.324H123.564V43.364H122.628V46.988ZM124.788 43.112V53.876H125.736V43.112H124.788ZM134.975 44.444H132.287V43.124H131.303V44.444H128.627V45.236H134.975V44.444ZM130.163 47.828C130.163 47.084 130.823 46.604 131.795 46.604C132.767 46.604 133.439 47.084 133.439 47.828C133.439 48.584 132.767 49.064 131.795 49.064C130.823 49.064 130.163 48.584 130.163 47.828ZM134.375 47.828C134.375 46.628 133.319 45.836 131.795 45.836C130.271 45.836 129.227 46.628 129.227 47.828C129.227 49.04 130.271 49.832 131.795 49.832C133.319 49.832 134.375 49.04 134.375 47.828ZM131.231 50.564H130.247V53.648H137.423V52.844H131.231V50.564ZM136.943 46.676V43.124H135.959V51.2H136.943V47.504H138.527V46.676H136.943ZM143.074 49.712C143.074 50.352 143.01 50.98 142.882 51.596C142.762 52.212 142.57 52.796 142.306 53.348C142.05 53.908 141.718 54.424 141.31 54.896H140.326C140.694 54.392 141.002 53.856 141.25 53.288C141.498 52.728 141.686 52.144 141.814 51.536C141.942 50.928 142.006 50.316 142.006 49.7C142.006 49.068 141.942 48.444 141.814 47.828C141.686 47.212 141.498 46.616 141.25 46.04C141.002 45.464 140.69 44.928 140.314 44.432H141.31C141.718 44.912 142.05 45.436 142.306 46.004C142.57 46.572 142.762 47.168 142.882 47.792C143.01 48.416 143.074 49.056 143.074 49.712Z" fill="#191E23"/>
</svg>
